<svg xmlns="http://www.w3.org/2000/svg" viewBox="0 0 512 512" width="512" height="512">
  <g transform="translate(56 40)">
    <rect x="0" y="0" width="400" height="52" rx="10" fill="#2a2a2a"/>
    <circle cx="40" cy="26" r="12" fill="#1a1a1a"/>
    <circle cx="100" cy="26" r="12" fill="#1a1a1a"/>
    <circle cx="160" cy="26" r="12" fill="#1a1a1a"/>
    <circle cx="220" cy="26" r="12" fill="#1a1a1a"/>
    <circle cx="280" cy="26" r="12" fill="#1a1a1a"/>
    <rect x="0" y="52" width="400" height="360" rx="36" fill="none" stroke="#2a2a2a" stroke-width="22"/>
    <rect x="52" y="120" width="36" height="36" rx="5" fill="#3a3a3a"/>
    <rect x="108" y="120" width="36" height="36" rx="5" fill="#3a3a3a"/>
    <rect x="164" y="120" width="36" height="36" rx="5" fill="#3a3a3a"/>
    <rect x="220" y="120" width="36" height="36" rx="5" fill="#3a3a3a"/>
    <rect x="52" y="184" width="36" height="36" rx="5" fill="#3a3a3a"/>
    <rect x="108" y="184" width="36" height="36" rx="5" fill="#3a3a3a"/>
    <rect x="164" y="184" width="36" height="36" rx="5" fill="#3a3a3a"/>
    <path
      d="M232 300l58 58 132-158"
      fill="none"
      stroke="#4ade80"
      stroke-width="44"
      stroke-linecap="round"
      stroke-linejoin="round"
    />
  </g>
</svg>
