<svg xmlns="http://www.w3.org/2000/svg" viewBox="0 0 390 844" fill="none">
  <defs>
    <linearGradient id="bnBg" x1="0" y1="0" x2="0" y2="1">
      <stop offset="0%" stop-color="#0b1220"/>
      <stop offset="100%" stop-color="#030712"/>
    </linearGradient>
    <linearGradient id="bnAccent" x1="0" y1="0" x2="1" y2="1">
      <stop offset="0%" stop-color="#22d3ee"/>
      <stop offset="100%" stop-color="#06b6d4"/>
    </linearGradient>
    <linearGradient id="bnCard" x1="0" y1="0" x2="0" y2="1">
      <stop offset="0%" stop-color="#0f172a"/>
      <stop offset="100%" stop-color="#020617"/>
    </linearGradient>
  </defs>
  <rect width="390" height="844" rx="36" fill="url(#bnBg)"/>
  <rect x="140" y="28" width="110" height="28" rx="14" fill="#1e293b"/>
  <text x="195" y="48" text-anchor="middle" fill="#94a3b8" font-family="system-ui,sans-serif" font-size="12" font-weight="600">9:41</text>
  <text x="32" y="110" fill="#f1f5f9" font-family="system-ui,sans-serif" font-size="22" font-weight="700">BookNow</text>
  <text x="32" y="138" fill="#64748b" font-family="system-ui,sans-serif" font-size="13">Agende em segundos</text>
  <rect x="24" y="168" width="342" height="48" rx="14" fill="#0f172a" stroke="rgba(34,211,238,0.25)" stroke-width="1"/>
  <text x="44" y="198" fill="#64748b" font-family="system-ui,sans-serif" font-size="14">Buscar profissional&</text>
  <rect x="24" y="236" width="342" height="120" rx="16" fill="url(#bnCard)" stroke="rgba(34,211,238,0.2)" stroke-width="1"/>
  <rect x="40" y="252" width="72" height="72" rx="12" fill="#1e293b"/>
  <text x="128" y="278" fill="#e2e8f0" font-family="system-ui,sans-serif" font-size="16" font-weight="600">Confirma??o autom?tica</text>
  <text x="128" y="302" fill="#64748b" font-family="system-ui,sans-serif" font-size="12">WhatsApp ? lembretes ? retorno</text>
  <rect x="24" y="372" width="342" height="88" rx="14" fill="#0f172a" stroke="rgba(148,163,184,0.15)" stroke-width="1"/>
  <rect x="40" y="388" width="56" height="56" rx="10" fill="#334155"/>
  <text x="112" y="412" fill="#e2e8f0" font-family="system-ui,sans-serif" font-size="15" font-weight="600">Studio Alpha</text>
  <text x="112" y="432" fill="#22d3ee" font-family="system-ui,sans-serif" font-size="12">Dispon?vel hoje</text>
  <rect x="24" y="476" width="342" height="88" rx="14" fill="#0f172a" stroke="rgba(148,163,184,0.15)" stroke-width="1"/>
  <rect x="40" y="492" width="56" height="56" rx="10" fill="#334155"/>
  <text x="112" y="516" fill="#e2e8f0" font-family="system-ui,sans-serif" font-size="15" font-weight="600">Beleza &amp; Corte</text>
  <text x="112" y="536" fill="#64748b" font-family="system-ui,sans-serif" font-size="12">Pr?ximos hor?rios</text>
  <rect x="24" y="600" width="342" height="56" rx="28" fill="url(#bnAccent)"/>
  <text x="195" y="634" text-anchor="middle" fill="#020617" font-family="system-ui,sans-serif" font-size="15" font-weight="700">Agendar agora</text>
</svg>
